<svg width="832" height="225" viewBox="0 0 832 225" fill="none" xmlns="http://www.w3.org/2000/svg">
<path d="M27.9526 146.055C36.0207 150.671 45.3522 153.31 55.2854 153.31C77.5645 153.31 96.8112 140.042 105.553 120.978C105.848 120.333 106.131 119.682 106.401 119.026C97.0398 117.658 88.3219 114.266 80.7171 109.301C78.6234 107.933 76.6199 106.451 74.7066 104.86C60.5138 93.0501 51.465 75.2511 51.465 55.3734C51.465 51.017 51.9042 46.7571 52.7284 42.6417C23.4282 43.9854 0 68.2737 0 97.9488C0 115.278 7.98988 130.769 20.4741 140.928C21.6473 141.886 22.8626 142.79 24.114 143.651C25.3595 144.507 26.635 145.308 27.9465 146.061L27.9526 146.055Z" fill="url(#paint0_linear_7_67)"/>
<path d="M60.4476 57.2171C60.4596 57.5244 60.4656 57.8377 60.4837 58.145C60.4897 58.3258 60.5077 58.5065 60.5137 58.6873C60.5318 58.9644 60.5438 59.2416 60.5679 59.5188C60.5799 59.7116 60.598 59.8984 60.616 60.0912C60.6401 60.3563 60.6581 60.6214 60.6882 60.8805C60.7063 61.0794 60.7303 61.2722 60.7544 61.471C60.7845 61.7241 60.8085 61.9832 60.8446 62.2362C60.8687 62.4351 60.8988 62.6339 60.9229 62.8267C60.959 63.0798 60.989 63.3268 61.0312 63.5799C61.0612 63.7787 61.0913 63.9776 61.1214 64.1764C61.1635 64.4234 61.1996 64.6705 61.2417 64.9175C61.2778 65.1164 61.3139 65.3152 61.35 65.508C61.3982 65.7551 61.4403 65.9961 61.4884 66.2431C61.5305 66.442 61.5666 66.6348 61.6087 66.8276C61.6629 67.0746 61.711 67.3156 61.7652 67.5567C61.8073 67.7495 61.8554 67.9423 61.8975 68.1351C61.9577 68.3761 62.0118 68.6231 62.078 68.8642C62.1262 69.0509 62.1743 69.2438 62.2224 69.4305C62.2886 69.6776 62.3548 69.9186 62.421 70.1596C62.4691 70.3464 62.5232 70.5272 62.5774 70.714C62.6496 70.961 62.7218 71.208 62.794 71.4491C62.8481 71.6298 62.9023 71.8046 62.9564 71.9853C63.0346 72.2384 63.1189 72.4854 63.1971 72.7325C63.2512 72.9012 63.3054 73.0699 63.3655 73.2386C63.4558 73.4977 63.546 73.7568 63.6423 74.0159C63.6965 74.1725 63.7506 74.3232 63.8108 74.4798C63.913 74.757 64.0213 75.0342 64.1296 75.3113C64.1778 75.4439 64.2319 75.5764 64.2801 75.709C64.4064 76.0344 64.5388 76.3537 64.6711 76.6731C64.7072 76.7574 64.7373 76.8418 64.7734 76.9261C65.1163 77.7396 65.4834 78.547 65.8684 79.3423C65.8925 79.3905 65.9165 79.4447 65.9406 79.4929C66.1091 79.8364 66.2775 80.1798 66.446 80.5173C66.5001 80.6197 66.5543 80.7221 66.6024 80.8246C66.7528 81.1078 66.8972 81.397 67.0537 81.6802C67.1198 81.8007 67.186 81.9212 67.2522 82.0417C67.3966 82.3008 67.541 82.5599 67.6854 82.819C67.7576 82.9515 67.8358 83.078 67.914 83.2106C68.0584 83.4576 68.2028 83.6987 68.3472 83.9457C68.4314 84.0843 68.5157 84.2168 68.5939 84.3494C68.7383 84.5844 68.8827 84.8194 69.0331 85.0544C69.1173 85.1869 69.2076 85.3255 69.2918 85.4581C69.4422 85.687 69.5926 85.922 69.743 86.145C69.8333 86.2775 69.9235 86.4101 70.0138 86.5427C70.1702 86.7716 70.3266 86.9946 70.483 87.2175C70.5733 87.3501 70.6696 87.4826 70.7658 87.6152C70.9283 87.8381 71.0847 88.061 71.2471 88.278C71.3434 88.4045 71.4397 88.5371 71.5359 88.6636C71.7044 88.8865 71.8728 89.1034 72.0413 89.3203C72.1376 89.4409 72.2338 89.5674 72.3301 89.6879C72.5046 89.9048 72.6791 90.1278 72.8596 90.3447C72.9558 90.4652 73.0521 90.5797 73.1483 90.7002C73.3288 90.9231 73.5154 91.14 73.7019 91.3569C73.7981 91.4654 73.8884 91.5799 73.9846 91.6883C74.1772 91.9113 74.3757 92.1342 74.5743 92.3511C74.6645 92.4536 74.7547 92.556 74.845 92.6524C75.0556 92.8814 75.2722 93.1103 75.4827 93.3393C75.567 93.4236 75.6452 93.514 75.7294 93.5984C75.9701 93.8454 76.2107 94.0925 76.4514 94.3395C76.5116 94.3998 76.5717 94.466 76.6319 94.5263C76.9207 94.8155 77.2155 95.0987 77.5103 95.3819C77.5283 95.4 77.5404 95.412 77.5584 95.4301C78.515 96.3399 79.4957 97.2196 80.5125 98.0572C80.5606 98.0933 80.6088 98.1355 80.6569 98.1716C80.9457 98.4066 81.2345 98.6416 81.5233 98.8706C81.6015 98.9308 81.6797 98.9911 81.7639 99.0574C82.0227 99.2622 82.2874 99.4671 82.5521 99.6659C82.6484 99.7383 82.7506 99.8106 82.8529 99.8889C83.0996 100.076 83.3523 100.256 83.599 100.437C83.7133 100.516 83.8216 100.594 83.9359 100.672C84.1766 100.841 84.4232 101.016 84.6639 101.178C84.7842 101.263 84.9045 101.341 85.0249 101.419C85.2655 101.582 85.5062 101.739 85.7469 101.895C85.8732 101.98 85.9995 102.058 86.1259 102.136C86.3666 102.287 86.6072 102.438 86.8479 102.588C86.9802 102.667 87.1126 102.751 87.245 102.829C87.4856 102.974 87.7263 103.118 87.9669 103.257C88.0993 103.335 88.2377 103.414 88.37 103.492C88.6167 103.631 88.8574 103.769 89.104 103.902C89.2424 103.98 89.3748 104.052 89.5132 104.125C89.7598 104.257 90.0125 104.39 90.2592 104.522C90.3976 104.595 90.536 104.667 90.6743 104.739C90.927 104.866 91.1797 104.992 91.4384 105.119C91.5768 105.185 91.7152 105.258 91.8536 105.324C92.1123 105.45 92.377 105.571 92.6417 105.691C92.7741 105.752 92.9065 105.818 93.0448 105.878C93.3216 106.005 93.5984 106.125 93.8751 106.24C94.0015 106.294 94.1278 106.348 94.2481 106.402C94.5429 106.529 94.8438 106.649 95.1446 106.77C95.2529 106.812 95.3612 106.86 95.4695 106.902C95.8064 107.035 96.1493 107.162 96.4863 107.294C96.5585 107.318 96.6307 107.348 96.7029 107.372C97.5392 107.68 98.3875 107.969 99.2418 108.234C99.2599 108.24 99.2779 108.246 99.302 108.252C99.7051 108.379 100.108 108.499 100.511 108.614C100.62 108.644 100.734 108.674 100.842 108.704C101.155 108.794 101.474 108.879 101.787 108.963C101.931 108.999 102.082 109.035 102.226 109.072C102.509 109.144 102.792 109.216 103.08 109.282C103.243 109.319 103.411 109.355 103.58 109.397C103.85 109.457 104.115 109.517 104.386 109.572C104.566 109.608 104.741 109.644 104.921 109.68C105.18 109.734 105.439 109.783 105.704 109.831C105.89 109.867 106.077 109.897 106.263 109.927C106.516 109.969 106.774 110.012 107.027 110.054C107.22 110.084 107.412 110.114 107.605 110.144C107.857 110.18 108.11 110.216 108.363 110.253C108.561 110.277 108.76 110.301 108.958 110.331C109.019 110.337 109.073 110.343 109.133 110.349C109.325 110.373 109.518 110.397 109.71 110.415C109.915 110.439 110.12 110.457 110.318 110.475C110.432 110.488 110.553 110.494 110.667 110.506C110.438 107.162 110.318 102.486 110.727 97.069C110.799 91.7787 111.503 86.6391 112.785 81.7284C113.417 79.2881 114.193 76.9081 115.101 74.5883C117.159 69.3221 119.884 64.3933 123.181 59.9044C127.237 54.1562 132.609 48.6972 139.715 44.1781C147.374 39.1289 156.17 35.6703 165.628 34.2845L166.699 34.0856C166.145 32.754 165.543 31.4525 164.888 30.1751C164.888 30.1751 164.888 30.1751 164.888 30.1691C164.485 29.3858 164.069 28.6206 163.63 27.8614C163.624 27.8493 163.612 27.8313 163.606 27.8192C163.426 27.5059 163.239 27.1986 163.059 26.8913C162.974 26.7467 162.884 26.6021 162.8 26.4635C162.619 26.1683 162.439 25.873 162.252 25.5838C162.192 25.4874 162.126 25.391 162.066 25.2946C161.687 24.7101 161.296 24.1317 160.893 23.5593C160.827 23.4629 160.754 23.3604 160.688 23.264C160.466 22.9507 160.237 22.6314 160.002 22.3241C159.96 22.2698 159.918 22.2156 159.876 22.1614C159.389 21.5167 158.889 20.878 158.372 20.2513C158.294 20.1549 158.215 20.0645 158.137 19.9681C157.638 19.3716 157.132 18.7811 156.609 18.2027C156.609 18.2027 156.609 18.2027 156.603 18.1967C149.142 9.96599 139.251 3.98278 128.073 1.40391C128.061 1.40391 128.049 1.40392 128.037 1.39789C127.182 1.19905 126.322 1.02431 125.456 0.867653C125.444 0.867653 125.432 0.867656 125.42 0.861631C124.21 0.644717 122.995 0.469979 121.768 0.33742C121.388 0.295243 121.015 0.259089 120.636 0.222936C120.414 0.20486 120.191 0.18076 119.969 0.162683C119.367 0.11448 118.759 0.0783278 118.152 0.0542263C117.977 0.0482009 117.809 0.0421762 117.634 0.0361509C116.978 0.0120493 116.323 0 115.667 0C92.6297 0 72.8475 14.1838 64.5508 34.2845C63.9732 35.6884 63.4438 37.1284 62.9805 38.5866C62.5232 40.0206 62.1201 41.4788 61.7832 42.961C60.8687 46.9498 60.3814 51.1013 60.3814 55.3673C60.3814 55.8312 60.3874 56.2952 60.3994 56.7592C60.3994 56.9098 60.4115 57.0604 60.4175 57.2111L60.4476 57.2171Z" fill="url(#paint1_linear_7_67)"/>
<path d="M115.173 127.949C114.476 127.316 113.76 126.708 113.026 126.111C108.916 134.529 103.026 141.916 95.8545 147.785C93.8811 149.399 91.8055 150.9 89.6455 152.274C79.7003 158.6 67.914 162.276 55.2854 162.276C44.2873 162.276 33.9209 159.492 24.8601 154.587C23.6087 159.209 22.9348 164.071 22.9348 169.09C22.9348 199.621 47.7347 224.458 78.2202 224.458C88.8453 224.458 98.7786 221.439 107.214 216.209C108.507 215.408 109.771 214.552 110.992 213.648C112.213 212.744 113.399 211.792 114.542 210.792C126.154 200.633 133.5 185.708 133.5 169.09C133.5 152.472 126.418 138.09 115.167 127.949H115.173Z" fill="url(#paint2_linear_7_67)"/>
<path d="M203.405 150.605C202.882 149.183 202.304 147.791 201.666 146.423C192.882 127.467 173.696 114.284 151.489 114.284C141.82 114.284 132.724 116.784 124.806 121.171C124.024 121.604 123.254 122.056 122.49 122.526C128.969 128.714 134.161 136.24 137.627 144.652C138.602 147.02 139.438 149.454 140.13 151.948C141.64 157.407 142.446 163.149 142.446 169.084C142.446 187.733 134.48 204.556 121.774 216.311C130.359 221.813 140.557 225.006 151.489 225.006C181.974 225.006 206.774 200.169 206.774 169.639C206.774 164.541 206.076 159.601 204.783 154.907C204.38 153.443 203.923 152.003 203.399 150.593L203.405 150.605Z" fill="url(#paint3_linear_7_67)"/>
<path d="M178.677 42.708C177.456 42.6296 176.229 42.5814 174.989 42.5814C174.688 42.5814 174.388 42.5874 174.087 42.5935C172.559 42.6176 171.049 42.7019 169.556 42.8526C168.75 42.9309 167.95 43.0273 167.156 43.1418C158.889 44.7445 151.669 47.4138 145.509 51.1375C138.993 55.072 133.668 60.1816 129.553 66.454C126.496 71.1177 124.102 76.414 122.393 82.349C120.841 87.7417 120.059 93.0139 119.71 97.6896C119.71 97.774 119.71 97.8644 119.71 97.9487C119.71 102.257 120.203 106.445 121.136 110.469C121.31 111.211 121.497 111.946 121.701 112.681C129.781 108.427 138.872 105.842 148.511 105.396C149.504 105.348 150.496 105.324 151.501 105.324C152.993 105.324 154.467 105.378 155.935 105.48C179.351 107.089 199.356 121.315 209.205 141.41C222.032 131.263 230.281 115.549 230.281 97.9487C230.281 68.6593 207.454 44.618 178.683 42.708H178.677Z" fill="url(#paint4_linear_7_67)"/>
<path d="M290.282 199.352C288.863 199.352 288.863 199.352 288.863 197.932V24.4292C288.863 23.009 288.863 23.009 290.282 23.009H357.953C398.296 23.009 421.484 47.8628 421.484 82.5396C421.484 117.453 397.941 141.715 357.125 141.715H326.602C325.183 141.715 325.183 141.715 325.183 143.135V197.932C325.183 199.352 325.183 199.352 323.763 199.352H290.282ZM325.183 111.181C325.183 112.601 325.183 112.601 326.602 112.601H351.328C373.451 112.601 383.981 100.292 383.981 82.5396C383.981 64.787 373.451 52.8335 351.21 52.8335H326.602C325.183 52.8335 325.183 52.8335 325.183 54.2537V111.181Z" fill="#351B30"/>
<path d="M474.437 200.181C447.227 200.181 434.923 188.582 434.923 165.03V24.4292C434.923 23.009 434.923 23.009 436.343 23.009H469.232C470.651 23.009 470.651 23.009 470.651 24.4292V160.178C470.651 168.699 473.254 172.25 480.353 172.25C484.138 172.25 486.031 171.895 487.688 171.421L493.248 197.34C489.462 198.642 482.6 200.181 474.437 200.181Z" fill="#351B30"/>
<path d="M545.019 201.009C517.453 201.009 499.234 182.191 499.234 151.183V68.4558C499.234 67.0356 499.234 67.0356 500.654 67.0356H533.543C534.963 67.0356 534.963 67.0356 534.963 68.4558V145.029C534.963 161.48 543.954 171.303 558.979 171.303C574.122 171.303 584.769 161.125 584.769 143.609V68.4558C584.769 67.0356 584.769 67.0356 586.189 67.0356H619.196C620.616 67.0356 620.616 67.0356 620.616 68.4558V197.932C620.616 199.352 620.616 199.352 619.196 199.352H588.2C586.78 199.352 586.78 199.352 586.78 197.932L586.307 171.895C578.854 190.594 565.249 201.009 545.019 201.009Z" fill="#351B30"/>
<path d="M641.39 199.352C639.971 199.352 639.971 199.352 639.971 197.932V68.4558C639.971 67.0356 639.971 67.0356 641.39 67.0356H671.558C672.978 67.0356 672.978 67.0356 673.096 68.4558L674.398 92.7178C681.614 73.4266 696.521 65.0237 712.374 65.0237C729.41 65.0237 740.531 74.6101 746.683 94.7298C754.136 74.3734 771.054 65.0237 789.391 65.0237C813.762 65.0237 831.863 81.3561 831.863 110.115V197.932C831.863 199.352 831.863 199.352 830.443 199.352H797.672C796.253 199.352 796.253 199.352 796.253 197.932V116.861C796.253 101.949 787.025 94.7298 774.958 94.7298C761.471 94.7298 753.071 104.08 753.071 117.927V197.932C753.071 199.352 753.071 199.352 751.651 199.352H720.064C718.644 199.352 718.644 199.352 718.644 197.932V115.915C718.644 103.014 710.008 94.7298 697.941 94.7298C685.282 94.7298 675.581 103.488 675.581 119.347V197.932C675.581 199.352 675.581 199.352 674.161 199.352H641.39Z" fill="#351B30"/>
<defs>
<linearGradient id="paint0_linear_7_67" x1="-8.01997" y1="75.697" x2="91.0923" y2="114.455" gradientUnits="userSpaceOnUse">
<stop offset="0.07" stop-color="#F1EDEE"/>
<stop offset="0.28" stop-color="#F8BC9F"/>
<stop offset="0.61" stop-color="#AA5476"/>
<stop offset="1" stop-color="#4A1B3B"/>
</linearGradient>
<linearGradient id="paint1_linear_7_67" x1="109.193" y1="-12.0448" x2="117.255" y2="94.1268" gradientUnits="userSpaceOnUse">
<stop offset="0.07" stop-color="#F1EDEE"/>
<stop offset="0.28" stop-color="#F8BC9F"/>
<stop offset="0.61" stop-color="#AA5476"/>
<stop offset="1" stop-color="#4A1B3B"/>
</linearGradient>
<linearGradient id="paint2_linear_7_67" x1="46.6157" y1="229.374" x2="99.1576" y2="131.943" gradientUnits="userSpaceOnUse">
<stop offset="0.07" stop-color="#F1EDEE"/>
<stop offset="0.28" stop-color="#F8BC9F"/>
<stop offset="0.61" stop-color="#AA5476"/>
<stop offset="1" stop-color="#4A1B3B"/>
</linearGradient>
<linearGradient id="paint3_linear_7_67" x1="181.71" y1="215.378" x2="130.318" y2="127.557" gradientUnits="userSpaceOnUse">
<stop stop-color="#F1EDEE"/>
<stop offset="0.15" stop-color="#F8BC9F"/>
<stop offset="0.58" stop-color="#AA5476"/>
<stop offset="1" stop-color="#4A1B3B"/>
</linearGradient>
<linearGradient id="paint4_linear_7_67" x1="241.116" y1="66.213" x2="140.919" y2="113.037" gradientUnits="userSpaceOnUse">
<stop offset="0.06" stop-color="#F1EDEE"/>
<stop offset="0.26" stop-color="#F8BC9F"/>
<stop offset="0.6" stop-color="#AA5476"/>
<stop offset="1" stop-color="#4A1B3B"/>
</linearGradient>
</defs>
</svg>
