<svg width="832" height="224" viewBox="0 0 832 224" fill="none" xmlns="http://www.w3.org/2000/svg">
<path d="M27.9476 145.404C36.0143 149.999 45.3442 152.626 55.2757 152.626C77.5508 152.626 96.7941 139.418 105.534 120.44C105.829 119.798 106.112 119.15 106.383 118.496C97.0227 117.134 88.3063 113.757 80.7028 108.815C78.6095 107.453 76.6063 105.978 74.6934 104.394C60.5031 92.6375 51.4559 74.9185 51.4559 55.1302C51.4559 50.7934 51.895 46.5526 52.7191 42.4558C23.424 43.7874 0 67.9665 0 97.5081C0 114.759 7.98847 130.181 20.4705 140.294C21.6435 141.248 22.8586 142.147 24.1098 143.005C25.355 143.857 26.6303 144.655 27.9416 145.404H27.9476Z" fill="url(#paint0_linear_7_111)"/>
<path d="M60.4369 56.9597C60.4489 57.2656 60.4549 57.5776 60.473 57.8835C60.479 58.0634 60.4971 58.2434 60.5031 58.4233C60.5211 58.6992 60.5331 58.9752 60.5572 59.2511C60.5692 59.443 60.5873 59.629 60.6053 59.8209C60.6294 60.0848 60.6474 60.3488 60.6775 60.6067C60.6956 60.8046 60.7196 60.9966 60.7437 61.1945C60.7738 61.4465 60.7978 61.7044 60.8339 61.9563C60.858 62.1542 60.8881 62.3522 60.9121 62.5441C60.9482 62.7961 60.9783 63.042 61.0204 63.2939C61.0505 63.4919 61.0805 63.6898 61.1106 63.8878C61.1527 64.1337 61.1888 64.3796 61.2309 64.6255C61.267 64.8235 61.3031 65.0214 61.3392 65.2134C61.3873 65.4593 61.4294 65.6992 61.4776 65.9452C61.5197 66.1431 61.5558 66.3351 61.5979 66.527C61.652 66.7729 61.7001 67.0129 61.7543 67.2528C61.7964 67.4447 61.8445 67.6367 61.8866 67.8286C61.9468 68.0686 62.0009 68.3145 62.0671 68.5544C62.1152 68.7404 62.1633 68.9323 62.2114 69.1183C62.2776 69.3642 62.3438 69.6041 62.41 69.8441C62.4581 70.03 62.5122 70.2099 62.5664 70.3959C62.6385 70.6418 62.7107 70.8878 62.7829 71.1277C62.837 71.3076 62.8912 71.4816 62.9453 71.6615C63.0235 71.9135 63.1077 72.1594 63.1859 72.4053C63.2401 72.5733 63.2942 72.7412 63.3544 72.9092C63.4446 73.1671 63.5348 73.425 63.6311 73.683C63.6852 73.8389 63.7394 73.9889 63.7995 74.1448C63.9018 74.4207 64.0101 74.6967 64.1183 74.9726C64.1665 75.1045 64.2206 75.2365 64.2687 75.3685C64.395 75.6924 64.5274 76.0103 64.6597 76.3282C64.6958 76.4122 64.7259 76.4962 64.762 76.5801C65.1049 77.3899 65.4718 78.1937 65.8568 78.9854C65.8809 79.0334 65.9049 79.0874 65.929 79.1354C66.0974 79.4773 66.2658 79.8192 66.4343 80.1551C66.4884 80.2571 66.5425 80.359 66.5907 80.461C66.7411 80.7429 66.8854 81.0309 67.0418 81.3128C67.108 81.4327 67.1742 81.5527 67.2403 81.6727C67.3847 81.9306 67.5291 82.1885 67.6734 82.4464C67.7456 82.5784 67.8238 82.7044 67.902 82.8363C68.0464 83.0823 68.1908 83.3222 68.3351 83.5681C68.4194 83.7061 68.5036 83.838 68.5818 83.97C68.7261 84.2039 68.8705 84.4379 69.0209 84.6718C69.1051 84.8038 69.1953 84.9417 69.2796 85.0737C69.4299 85.3016 69.5803 85.5356 69.7307 85.7575C69.8209 85.8895 69.9112 86.0214 70.0014 86.1534C70.1578 86.3813 70.3142 86.6033 70.4706 86.8252C70.5608 86.9572 70.6571 87.0891 70.7533 87.2211C70.9158 87.443 71.0722 87.665 71.2346 87.8809C71.3308 88.0069 71.4271 88.1388 71.5233 88.2648C71.6917 88.4867 71.8602 88.7027 72.0286 88.9186C72.1248 89.0386 72.2211 89.1645 72.3173 89.2845C72.4918 89.5004 72.6662 89.7224 72.8467 89.9383C72.9429 90.0583 73.0392 90.1722 73.1354 90.2922C73.3159 90.5141 73.5024 90.7301 73.6889 90.946C73.7851 91.054 73.8753 91.168 73.9716 91.2759C74.1641 91.4979 74.3626 91.7198 74.5611 91.9357C74.6513 92.0377 74.7416 92.1397 74.8318 92.2356C75.0423 92.4636 75.2589 92.6915 75.4694 92.9195C75.5536 93.0034 75.6318 93.0934 75.7161 93.1774C75.9567 93.4233 76.1973 93.6692 76.4379 93.9152C76.4981 93.9752 76.5582 94.0411 76.6184 94.1011C76.9071 94.389 77.2019 94.671 77.4966 94.9529C77.5147 94.9709 77.5267 94.9829 77.5447 95.0009C78.5012 95.9066 79.4817 96.7823 80.4983 97.6161C80.5464 97.6521 80.5946 97.6941 80.6427 97.7301C80.9314 97.964 81.2202 98.1979 81.5089 98.4259C81.5871 98.4859 81.6653 98.5458 81.7495 98.6118C82.0082 98.8158 82.2729 99.0197 82.5375 99.2177C82.6338 99.2896 82.736 99.3616 82.8383 99.4396C83.0849 99.6255 83.3376 99.8055 83.5842 99.9854C83.6985 100.063 83.8068 100.141 83.9211 100.219C84.1617 100.387 84.4083 100.561 84.6489 100.723C84.7693 100.807 84.8896 100.885 85.0099 100.963C85.2505 101.125 85.4911 101.281 85.7317 101.437C85.858 101.521 85.9844 101.599 86.1107 101.677C86.3513 101.827 86.5919 101.977 86.8325 102.127C86.9649 102.205 87.0972 102.289 87.2296 102.367C87.4702 102.511 87.7108 102.655 87.9514 102.793C88.0838 102.871 88.2221 102.949 88.3544 103.027C88.6011 103.165 88.8417 103.302 89.0883 103.434C89.2267 103.512 89.359 103.584 89.4974 103.656C89.744 103.788 89.9967 103.92 90.2433 104.052C90.3816 104.124 90.52 104.196 90.6584 104.268C90.911 104.394 91.1636 104.52 91.4223 104.646C91.5607 104.712 91.699 104.784 91.8374 104.85C92.096 104.976 92.3607 105.096 92.6254 105.216C92.7577 105.276 92.8901 105.342 93.0284 105.402C93.3051 105.528 93.5818 105.648 93.8585 105.762C93.9849 105.816 94.1112 105.87 94.2315 105.924C94.5263 106.05 94.827 106.17 95.1278 106.29C95.2361 106.332 95.3444 106.38 95.4526 106.422C95.7895 106.554 96.1324 106.68 96.4692 106.811C96.5414 106.835 96.6136 106.865 96.6858 106.889C97.5219 107.195 98.3701 107.483 99.2243 107.747C99.2423 107.753 99.2604 107.759 99.2845 107.765C99.6875 107.891 100.091 108.011 100.494 108.125C100.602 108.155 100.716 108.185 100.824 108.215C101.137 108.305 101.456 108.389 101.769 108.473C101.913 108.509 102.064 108.545 102.208 108.581C102.491 108.653 102.773 108.725 103.062 108.791C103.225 108.827 103.393 108.863 103.561 108.905C103.832 108.965 104.097 109.025 104.367 109.079C104.548 109.115 104.722 109.151 104.903 109.187C105.162 109.241 105.42 109.289 105.685 109.337C105.871 109.373 106.058 109.403 106.244 109.433C106.497 109.475 106.756 109.517 107.008 109.559C107.201 109.589 107.393 109.619 107.586 109.649C107.838 109.685 108.091 109.721 108.344 109.757C108.542 109.781 108.741 109.805 108.939 109.835C108.999 109.841 109.053 109.847 109.114 109.853C109.306 109.877 109.499 109.901 109.691 109.919C109.896 109.943 110.1 109.961 110.299 109.979C110.413 109.991 110.533 109.997 110.648 110.009C110.419 106.68 110.299 102.025 110.708 96.6324C110.78 91.3659 111.484 86.2494 112.765 81.3608C113.397 78.9315 114.173 76.5621 115.081 74.2528C117.138 69.0103 119.863 64.1037 123.16 59.635C127.214 53.9126 132.586 48.4782 139.69 43.9794C147.348 38.9529 156.142 35.5099 165.598 34.1302L166.669 33.9323C166.116 32.6067 165.514 31.3111 164.859 30.0394C164.859 30.0394 164.859 30.0394 164.859 30.0334C164.455 29.2536 164.04 28.4919 163.601 27.7361C163.595 27.7241 163.583 27.7061 163.577 27.6941C163.397 27.3822 163.21 27.0763 163.03 26.7704C162.946 26.6264 162.855 26.4824 162.771 26.3445C162.591 26.0506 162.41 25.7566 162.224 25.4687C162.164 25.3728 162.097 25.2768 162.037 25.1808C161.658 24.599 161.267 24.0231 160.864 23.4533C160.798 23.3573 160.726 23.2554 160.66 23.1594C160.437 22.8475 160.209 22.5296 159.974 22.2237C159.932 22.1697 159.89 22.1157 159.848 22.0617C159.36 21.4199 158.861 20.7841 158.344 20.1602C158.266 20.0643 158.187 19.9743 158.109 19.8783C157.61 19.2845 157.105 18.6967 156.581 18.1208C156.581 18.1208 156.581 18.1208 156.575 18.1148C149.116 9.92117 139.227 3.96487 128.05 1.3976C128.038 1.3976 128.026 1.3976 128.014 1.3916C127.16 1.19366 126.3 1.01971 125.433 0.863753C125.421 0.863753 125.409 0.863753 125.397 0.857755C124.188 0.641817 122.973 0.467866 121.746 0.335904C121.367 0.293916 120.994 0.257926 120.615 0.221937C120.393 0.203942 120.17 0.179949 119.947 0.161954C119.346 0.113967 118.738 0.0779777 118.131 0.0539846C117.956 0.0479863 117.788 0.041988 117.613 0.0359897C116.958 0.0119966 116.302 0 115.646 0C92.6134 0 72.8347 14.12 64.5394 34.1302C63.9619 35.5279 63.4326 36.9614 62.9694 38.413C62.5122 39.8406 62.1092 41.2922 61.7723 42.7678C60.858 46.7387 60.3707 50.8715 60.3707 55.1183C60.3707 55.5801 60.3767 56.042 60.3888 56.5039C60.3888 56.6538 60.4008 56.8038 60.4068 56.9537L60.4369 56.9597Z" fill="url(#paint1_linear_7_111)"/>
<path d="M115.153 127.374C114.455 126.744 113.739 126.138 113.006 125.544C108.897 133.924 103.008 141.278 95.8376 147.12C93.8646 148.727 91.7892 150.221 89.6297 151.589C79.6862 157.887 67.902 161.546 55.2757 161.546C44.2795 161.546 33.9149 158.775 24.8557 153.892C23.6045 158.493 22.9308 163.333 22.9308 168.33C22.9308 198.723 47.7263 223.448 78.2064 223.448C88.8296 223.448 98.7611 220.443 107.195 215.236C108.488 214.439 109.751 213.587 110.972 212.687C112.194 211.787 113.379 210.84 114.522 209.844C126.131 199.731 133.476 184.873 133.476 168.33C133.476 151.787 126.396 137.469 115.147 127.374H115.153Z" fill="url(#paint2_linear_7_111)"/>
<path d="M203.375 148.927C202.852 147.512 202.274 146.126 201.637 144.764C192.854 125.894 173.671 112.77 151.468 112.77C141.801 112.77 132.706 115.259 124.79 119.626C124.008 120.057 123.238 120.507 122.474 120.975C128.952 127.135 134.144 134.627 137.609 143.001C138.583 145.358 139.419 147.782 140.111 150.265C141.621 155.699 142.427 161.416 142.427 167.324C142.427 185.889 134.463 202.636 121.758 214.339C130.342 219.815 140.538 222.994 151.468 222.994C181.948 222.994 206.744 198.269 206.744 167.876C206.744 162.801 206.046 157.883 204.753 153.21C204.35 151.752 203.893 150.319 203.369 148.915L203.375 148.927Z" fill="url(#paint3_linear_7_111)"/>
<path d="M178.646 42.5159C177.425 42.4379 176.198 42.3899 174.958 42.3899C174.658 42.3899 174.357 42.3959 174.056 42.4019C172.528 42.4259 171.018 42.5099 169.526 42.6598C168.72 42.7378 167.92 42.8338 167.126 42.9477C158.861 44.5433 151.643 47.2005 145.483 50.9075C138.968 54.8243 133.645 59.9109 129.53 66.1551C126.474 70.7978 124.08 76.0703 122.372 81.9786C120.82 87.347 120.038 92.5955 119.689 97.2502C119.689 97.3342 119.689 97.4242 119.689 97.5081C119.689 101.797 120.182 105.966 121.114 109.973C121.289 110.71 121.475 111.442 121.68 112.174C129.759 107.939 138.848 105.366 148.485 104.922C149.477 104.874 150.47 104.85 151.474 104.85C152.966 104.85 154.44 104.904 155.908 105.006C179.32 106.608 199.321 120.769 209.168 140.774C221.993 130.673 230.24 115.029 230.24 97.5081C230.24 68.3505 207.418 44.4173 178.652 42.5159H178.646Z" fill="url(#paint4_linear_7_111)"/>
<path d="M290.42 198.349C289 198.349 289 198.349 289 196.929V23.4262C289 22.006 289 22.006 290.42 22.006H358.091C398.433 22.006 421.621 46.8597 421.621 81.5366C421.621 116.45 398.078 140.712 357.262 140.712H326.74C325.32 140.712 325.32 140.712 325.32 142.132V196.929C325.32 198.349 325.32 198.349 323.9 198.349H290.42ZM325.32 110.178C325.32 111.598 325.32 111.598 326.74 111.598H351.465C373.589 111.598 384.118 99.2892 384.118 81.5366C384.118 63.7839 373.589 51.8304 351.347 51.8304H326.74C325.32 51.8304 325.32 51.8304 325.32 53.2507V110.178Z" fill="white"/>
<path d="M474.574 199.178C447.364 199.178 435.06 187.579 435.06 164.027V23.4262C435.06 22.006 435.06 22.006 436.48 22.006H469.369C470.789 22.006 470.789 22.006 470.789 23.4262V159.175C470.789 167.696 473.391 171.247 480.49 171.247C484.276 171.247 486.168 170.892 487.825 170.418L493.385 196.337C489.599 197.639 482.738 199.178 474.574 199.178Z" fill="white"/>
<path d="M545.156 200.006C517.59 200.006 499.371 181.188 499.371 150.18V67.4528C499.371 66.0326 499.371 66.0326 500.791 66.0326H533.68C535.1 66.0326 535.1 66.0326 535.1 67.4528V144.026C535.1 160.477 544.091 170.3 559.116 170.3C574.259 170.3 584.906 160.122 584.906 142.606V67.4528C584.906 66.0326 584.906 66.0326 586.326 66.0326H619.333C620.753 66.0326 620.753 66.0326 620.753 67.4528V196.929C620.753 198.349 620.753 198.349 619.333 198.349H588.337C586.918 198.349 586.918 198.349 586.918 196.929L586.444 170.892C578.991 189.591 565.386 200.006 545.156 200.006Z" fill="white"/>
<path d="M641.528 198.349C640.108 198.349 640.108 198.349 640.108 196.929V67.4528C640.108 66.0326 640.108 66.0326 641.528 66.0326H671.696C673.115 66.0326 673.115 66.0326 673.234 67.4528L674.535 91.7148C681.752 72.4235 696.658 64.0206 712.511 64.0206C729.547 64.0206 740.668 73.607 746.82 93.7267C754.273 73.3703 771.191 64.0206 789.528 64.0206C813.899 64.0206 832 80.3531 832 109.112V196.929C832 198.349 832 198.349 830.58 198.349H797.81C796.39 198.349 796.39 198.349 796.39 196.929V115.858C796.39 100.946 787.162 93.7267 775.095 93.7267C761.608 93.7267 753.208 103.076 753.208 116.924V196.929C753.208 198.349 753.208 198.349 751.789 198.349H720.201C718.781 198.349 718.781 198.349 718.781 196.929V114.912C718.781 102.011 710.145 93.7267 698.078 93.7267C685.419 93.7267 675.718 102.485 675.718 118.344V196.929C675.718 198.349 675.718 198.349 674.298 198.349H641.528Z" fill="white"/>
<defs>
<linearGradient id="paint0_linear_7_111" x1="-8.01855" y1="75.3624" x2="90.9681" y2="114.231" gradientUnits="userSpaceOnUse">
<stop offset="0.07" stop-color="#F1EDEE"/>
<stop offset="0.28" stop-color="white" stop-opacity="0.75"/>
<stop offset="0.61" stop-color="white" stop-opacity="0.5"/>
<stop offset="1" stop-color="white" stop-opacity="0.25"/>
</linearGradient>
<linearGradient id="paint1_linear_7_111" x1="109.18" y1="-11.9906" x2="117.165" y2="93.7087" gradientUnits="userSpaceOnUse">
<stop offset="0.07" stop-color="#F1EDEE"/>
<stop offset="0.28" stop-color="white" stop-opacity="0.75"/>
<stop offset="0.61" stop-color="white" stop-opacity="0.5"/>
<stop offset="1" stop-color="white" stop-opacity="0.25"/>
</linearGradient>
<linearGradient id="paint2_linear_7_111" x1="46.6074" y1="228.343" x2="98.7884" y2="131.166" gradientUnits="userSpaceOnUse">
<stop offset="0.07" stop-color="#F1EDEE"/>
<stop offset="0.28" stop-color="white" stop-opacity="0.75"/>
<stop offset="0.61" stop-color="white" stop-opacity="0.5"/>
<stop offset="1" stop-color="white" stop-opacity="0.25"/>
</linearGradient>
<linearGradient id="paint3_linear_7_111" x1="181.678" y1="213.409" x2="130.626" y2="125.791" gradientUnits="userSpaceOnUse">
<stop stop-color="#F1EDEE"/>
<stop offset="0.16" stop-color="white" stop-opacity="0.75"/>
<stop offset="0.58" stop-color="white" stop-opacity="0.5"/>
<stop offset="1" stop-color="white" stop-opacity="0.25"/>
</linearGradient>
<linearGradient id="paint4_linear_7_111" x1="241.074" y1="65.9152" x2="141.056" y2="112.861" gradientUnits="userSpaceOnUse">
<stop offset="0.06" stop-color="#F1EDEE"/>
<stop offset="0.26" stop-color="white" stop-opacity="0.75"/>
<stop offset="0.6" stop-color="white" stop-opacity="0.5"/>
<stop offset="1" stop-color="white" stop-opacity="0.25"/>
</linearGradient>
</defs>
</svg>
