<svg width="931" height="224" viewBox="0 0 931 224" fill="none" xmlns="http://www.w3.org/2000/svg">
<g clip-path="url(#clip0_0_110)">
<path d="M366.585 169.764C367.049 180.435 371.235 188.088 378.219 191.339C379.38 191.573 380.313 192.731 380.313 193.889C380.313 195.046 379.38 195.976 377.985 195.976H321.217C319.822 195.976 318.889 195.046 318.889 193.889C318.889 192.731 319.822 191.567 321.217 191.339C328.195 188.094 332.153 180.435 332.851 169.764V52.839C332.153 41.9341 328.195 34.5142 321.217 31.2631C319.822 30.8013 318.889 29.8715 318.889 28.4799C318.889 27.3223 319.822 26.6265 321.217 26.6265H408.23C456.39 26.6265 481.751 44.0275 481.751 76.9701C481.751 109.913 455.463 129.401 408.23 129.401H366.585V169.77V169.764ZM366.351 31.2691L366.585 124.764H392.41C429.404 124.764 447.782 109.685 447.782 79.2914C447.782 48.8981 428.472 31.2691 392.41 31.2691H366.351Z" fill="#F1EDEE"/>
<path d="M539.679 169.764C540.377 180.669 544.335 188.088 551.313 191.339C552.708 191.573 553.641 192.731 553.641 193.889C553.641 195.046 552.708 195.976 551.313 195.976H494.545C493.15 195.976 492.217 195.046 492.217 193.889C492.217 192.731 493.15 191.567 494.311 191.339C501.289 188.094 505.475 180.435 505.945 169.764V73.953C505.945 61.8904 498.732 51.2195 489.426 49.1321C484.307 47.9744 484.307 45.4192 487.098 44.4894L535.721 28.0181C537.814 27.3223 539.679 29.1758 539.679 31.7311V169.764Z" fill="#F1EDEE"/>
<path d="M718.818 195.982C717.422 195.982 716.49 195.052 716.49 193.895C716.49 192.737 717.422 191.573 718.583 191.345C725.561 188.1 729.748 180.441 730.217 169.77V114.094C730.217 102.031 723.005 91.36 713.699 89.2726C708.58 88.1149 708.58 85.5597 711.371 84.6299L759.994 68.1586C762.087 67.4628 763.952 69.3163 763.952 71.8716V78.1338C772.56 72.7953 782.798 70.246 794.895 70.246C812.111 70.246 824.906 75.1166 832.588 84.1681C844.45 75.5845 860.74 70.48 876.097 70.48C901.458 70.48 917.044 84.402 917.044 106.902V169.77C917.742 180.674 921.7 188.094 928.678 191.345C930.073 191.579 931.006 192.737 931.006 193.895C931.006 195.052 930.073 195.982 928.678 195.982H872.145C870.749 195.982 869.817 195.052 869.817 193.895C869.817 192.737 870.749 191.573 871.91 191.345C878.888 188.1 883.075 180.441 883.544 169.77V106.902C883.544 88.3429 875.869 77.438 862.605 77.438C854.46 77.438 844.925 81.3848 835.385 88.1089C838.639 93.4474 840.269 99.7096 840.269 106.902V169.77C840.967 180.674 844.919 188.094 851.903 191.345C853.299 191.579 854.231 192.737 854.231 193.895C854.231 195.052 853.299 195.982 851.903 195.982H795.37C793.975 195.982 793.042 195.052 793.042 193.895C793.042 192.737 793.975 191.573 795.136 191.345C802.114 188.1 806.306 180.441 806.77 169.77V106.902C806.77 86.7173 799.322 76.2803 784.669 76.2803C777.222 76.2803 770.244 78.8296 763.964 84.1681V169.776C764.662 180.68 768.62 188.1 775.598 191.351C776.993 191.585 777.926 192.743 777.926 193.901C777.926 195.058 776.993 195.988 775.598 195.988H718.83L718.818 195.982Z" fill="#F1EDEE"/>
<path d="M699.611 191.339C692.88 188.208 688.976 181.184 688.073 170.915V65.2194C688.073 62.6701 686.215 60.8107 684.115 61.5065L635.492 77.9777C632.701 78.9075 632.701 81.4568 637.821 82.6204C647.126 84.7078 654.339 95.3788 654.339 107.441V157.785L654.357 157.911C654.357 157.911 654.357 157.941 654.357 157.953L654.339 157.785C654.345 157.923 654.345 158.055 654.351 158.193C654.273 161.186 653.924 165.745 652.691 169.925C648.414 182.57 636.888 191.573 627.39 191.573C614.83 191.573 608.315 179.277 608.315 155.614V71.8655C608.315 69.3162 606.456 67.4568 604.363 68.1526L555.74 84.6238C552.949 85.5536 552.949 88.1029 558.068 89.2665C567.374 91.3539 574.586 102.025 574.586 114.087V155.614C575.05 181.13 591.568 197.374 617.392 197.374C635.715 197.374 650.2 189.048 655.975 175.288V192.125C655.975 194.584 657.707 196.39 659.711 195.892V195.982H699.617C701.012 195.982 701.945 195.052 701.945 193.895C701.945 192.737 701.012 191.573 699.617 191.345L699.611 191.339Z" fill="#F1EDEE"/>
<path d="M27.9476 145.398C36.0143 149.993 45.3442 152.62 55.2757 152.62C77.5508 152.62 96.7941 139.412 105.534 120.434C105.829 119.792 106.112 119.144 106.383 118.49C97.0227 117.128 88.3063 113.751 80.7028 108.809C78.6095 107.447 76.6063 105.972 74.6934 104.388C60.5031 92.6315 51.4559 74.9126 51.4559 55.1242C51.4559 50.7874 51.895 46.5467 52.7191 42.4498C23.424 43.7814 0 67.9605 0 97.5021C0 114.753 7.98847 130.175 20.4705 140.288C21.6435 141.242 22.8586 142.141 24.1098 142.999C25.355 143.851 26.6303 144.649 27.9416 145.398H27.9476Z" fill="url(#paint0_linear_0_110)"/>
<path d="M60.4368 56.9537C60.4488 57.2597 60.4548 57.5716 60.4729 57.8775C60.4789 58.0574 60.4969 58.2374 60.5029 58.4173C60.521 58.6933 60.533 58.9692 60.5571 59.2451C60.5691 59.437 60.5872 59.623 60.6052 59.8149C60.6293 60.0789 60.6473 60.3428 60.6774 60.6007C60.6954 60.7986 60.7195 60.9906 60.7436 61.1885C60.7736 61.4405 60.7977 61.6984 60.8338 61.9503C60.8579 62.1483 60.8879 62.3462 60.912 62.5382C60.9481 62.7901 60.9782 63.036 61.0203 63.2879C61.0503 63.4859 61.0804 63.6838 61.1105 63.8818C61.1526 64.1277 61.1887 64.3736 61.2308 64.6196C61.2669 64.8175 61.303 65.0154 61.3391 65.2074C61.3872 65.4533 61.4293 65.6933 61.4774 65.9392C61.5195 66.1371 61.5556 66.3291 61.5978 66.521C61.6519 66.7669 61.7 67.0069 61.7542 67.2468C61.7963 67.4388 61.8444 67.6307 61.8865 67.8226C61.9466 68.0626 62.0008 68.3085 62.067 68.5484C62.1151 68.7344 62.1632 68.9263 62.2113 69.1123C62.2775 69.3582 62.3437 69.5981 62.4098 69.8381C62.458 70.024 62.5121 70.204 62.5662 70.3899C62.6384 70.6358 62.7106 70.8818 62.7828 71.1217C62.8369 71.3017 62.8911 71.4756 62.9452 71.6555C63.0234 71.9075 63.1076 72.1534 63.1858 72.3993C63.24 72.5673 63.2941 72.7352 63.3543 72.9032C63.4445 73.1611 63.5347 73.419 63.631 73.677C63.6851 73.8329 63.7392 73.9829 63.7994 74.1388C63.9017 74.4148 64.0099 74.6907 64.1182 74.9666C64.1663 75.0986 64.2205 75.2305 64.2686 75.3625C64.3949 75.6864 64.5273 76.0043 64.6596 76.3222C64.6957 76.4062 64.7258 76.4902 64.7619 76.5742C65.1047 77.3839 65.4717 78.1877 65.8567 78.9795C65.8807 79.0274 65.9048 79.0814 65.9288 79.1294C66.0973 79.4713 66.2657 79.8132 66.4341 80.1491C66.4883 80.2511 66.5424 80.3531 66.5905 80.455C66.7409 80.737 66.8853 81.0249 67.0417 81.3068C67.1079 81.4268 67.174 81.5467 67.2402 81.6667C67.3846 81.9246 67.529 82.1825 67.6733 82.4405C67.7455 82.5724 67.8237 82.6984 67.9019 82.8304C68.0463 83.0763 68.1906 83.3162 68.335 83.5621C68.4192 83.7001 68.5034 83.8321 68.5816 83.964C68.726 84.198 68.8704 84.4319 69.0208 84.6658C69.105 84.7978 69.1952 84.9358 69.2794 85.0677C69.4298 85.2957 69.5802 85.5296 69.7306 85.7515C69.8208 85.8835 69.9111 86.0154 70.0013 86.1474C70.1577 86.3753 70.3141 86.5973 70.4705 86.8192C70.5607 86.9512 70.657 87.0831 70.7532 87.2151C70.9156 87.437 71.072 87.659 71.2344 87.8749C71.3307 88.0009 71.4269 88.1328 71.5232 88.2588C71.6916 88.4807 71.86 88.6967 72.0285 88.9126C72.1247 89.0326 72.221 89.1585 72.3172 89.2785C72.4917 89.4944 72.6661 89.7164 72.8466 89.9323C72.9428 90.0523 73.0391 90.1663 73.1353 90.2862C73.3158 90.5082 73.5023 90.7241 73.6887 90.94C73.785 91.048 73.8752 91.162 73.9715 91.2699C74.164 91.4919 74.3625 91.7138 74.561 91.9297C74.6512 92.0317 74.7414 92.1337 74.8317 92.2297C75.0422 92.4576 75.2588 92.6855 75.4693 92.9135C75.5535 92.9974 75.6317 93.0874 75.7159 93.1714C75.9566 93.4173 76.1972 93.6633 76.4378 93.9092C76.4979 93.9692 76.5581 94.0351 76.6182 94.0951C76.907 94.383 77.2017 94.665 77.4965 94.9469C77.5145 94.9649 77.5266 94.9769 77.5446 94.9949C78.5011 95.9006 79.4816 96.7764 80.4982 97.6101C80.5463 97.6461 80.5944 97.6881 80.6426 97.7241C80.9313 97.958 81.22 98.192 81.5088 98.4199C81.587 98.4799 81.6652 98.5399 81.7494 98.6059C82.0081 98.8098 82.2727 99.0137 82.5374 99.2117C82.6337 99.2837 82.7359 99.3556 82.8382 99.4336C83.0848 99.6196 83.3375 99.7995 83.5841 99.9795C83.6984 100.057 83.8067 100.135 83.921 100.213C84.1616 100.381 84.4082 100.555 84.6488 100.717C84.7691 100.801 84.8894 100.879 85.0098 100.957C85.2504 101.119 85.491 101.275 85.7316 101.431C85.8579 101.515 85.9842 101.593 86.1106 101.671C86.3512 101.821 86.5918 101.971 86.8324 102.121C86.9648 102.199 87.0971 102.283 87.2294 102.361C87.4701 102.505 87.7107 102.649 87.9513 102.787C88.0836 102.865 88.222 102.943 88.3543 103.021C88.601 103.159 88.8416 103.297 89.0882 103.428C89.2266 103.506 89.3589 103.578 89.4972 103.65C89.7439 103.782 89.9965 103.914 90.2432 104.046C90.3815 104.118 90.5199 104.19 90.6582 104.262C90.9109 104.388 91.1635 104.514 91.4222 104.64C91.5605 104.706 91.6989 104.778 91.8372 104.844C92.0959 104.97 92.3606 105.09 92.6253 105.21C92.7576 105.27 92.8899 105.336 93.0283 105.396C93.305 105.522 93.5817 105.642 93.8584 105.756C93.9848 105.81 94.1111 105.864 94.2314 105.918C94.5261 106.044 94.8269 106.164 95.1277 106.284C95.236 106.326 95.3442 106.374 95.4525 106.416C95.7894 106.548 96.1323 106.674 96.4691 106.806C96.5413 106.829 96.6135 106.859 96.6857 106.883C97.5218 107.189 98.37 107.477 99.2242 107.741C99.2422 107.747 99.2603 107.753 99.2843 107.759C99.6874 107.885 100.09 108.005 100.493 108.119C100.602 108.149 100.716 108.179 100.824 108.209C101.137 108.299 101.456 108.383 101.769 108.467C101.913 108.503 102.063 108.539 102.208 108.575C102.491 108.647 102.773 108.719 103.062 108.785C103.224 108.821 103.393 108.857 103.561 108.899C103.832 108.959 104.097 109.019 104.367 109.073C104.548 109.109 104.722 109.145 104.903 109.181C105.161 109.235 105.42 109.283 105.685 109.331C105.871 109.367 106.058 109.397 106.244 109.427C106.497 109.469 106.755 109.511 107.008 109.553C107.201 109.583 107.393 109.613 107.586 109.643C107.838 109.679 108.091 109.715 108.344 109.751C108.542 109.775 108.741 109.799 108.939 109.829C108.999 109.835 109.053 109.841 109.114 109.847C109.306 109.871 109.499 109.895 109.691 109.913C109.896 109.937 110.1 109.955 110.299 109.973C110.413 109.985 110.533 109.991 110.647 110.003C110.419 106.674 110.299 102.019 110.708 96.6264C110.78 91.3599 111.484 86.2434 112.765 81.3548C113.397 78.9255 114.172 76.5562 115.081 74.2468C117.138 69.0043 119.863 64.0977 123.16 59.629C127.214 53.9066 132.586 48.4722 139.69 43.9735C147.348 38.9469 156.142 35.5039 165.598 34.1243L166.669 33.9263C166.116 32.6007 165.514 31.3051 164.858 30.0334C164.858 30.0334 164.858 30.0334 164.858 30.0274C164.455 29.2477 164.04 28.4859 163.601 27.7301C163.595 27.7181 163.583 27.7001 163.577 27.6881C163.397 27.3762 163.21 27.0703 163.03 26.7644C162.945 26.6204 162.855 26.4765 162.771 26.3385C162.591 26.0446 162.41 25.7507 162.224 25.4627C162.163 25.3668 162.097 25.2708 162.037 25.1748C161.658 24.593 161.267 24.0172 160.864 23.4473C160.798 23.3513 160.726 23.2494 160.66 23.1534C160.437 22.8415 160.208 22.5236 159.974 22.2177C159.932 22.1637 159.89 22.1097 159.848 22.0557C159.36 21.4139 158.861 20.7781 158.344 20.1543C158.265 20.0583 158.187 19.9683 158.109 19.8723C157.61 19.2785 157.105 18.6907 156.581 18.1148C156.581 18.1148 156.581 18.1148 156.575 18.1088C149.116 9.91518 139.227 3.95889 128.05 1.39162C128.038 1.39162 128.026 1.39162 128.014 1.38562C127.16 1.18768 126.3 1.01373 125.433 0.857772C125.421 0.857772 125.409 0.857772 125.397 0.851774C124.188 0.635835 122.973 0.461885 121.746 0.329923C121.367 0.287935 120.994 0.251945 120.615 0.215955C120.392 0.19796 120.17 0.173967 119.947 0.155972C119.346 0.107986 118.738 0.0719963 118.131 0.0480031C117.956 0.0420048 117.788 0.0360066 117.613 0.0300083C116.958 0.00601513 116.302 -0.00598145 115.646 -0.00598145C92.6132 -0.00598145 72.8345 14.114 64.5393 34.1243C63.9618 35.5219 63.4325 36.9555 62.9693 38.407C62.5121 39.8346 62.1091 41.2862 61.7722 42.7618C60.8579 46.7327 60.3706 50.8655 60.3706 55.1123C60.3706 55.5741 60.3766 56.036 60.3887 56.4979C60.3887 56.6478 60.4007 56.7978 60.4067 56.9478L60.4368 56.9537Z" fill="url(#paint1_linear_0_110)"/>
<path d="M115.153 127.368C114.455 126.738 113.739 126.132 113.006 125.538C108.897 133.918 103.008 141.272 95.8375 147.114C93.8645 148.721 91.7891 150.215 89.6296 151.583C79.6861 157.881 67.9019 161.54 55.2756 161.54C44.2794 161.54 33.9148 158.769 24.8556 153.886C23.6044 158.487 22.9307 163.327 22.9307 168.324C22.9307 198.717 47.7262 223.442 78.2063 223.442C88.8296 223.442 98.761 220.437 107.195 215.23C108.488 214.433 109.751 213.581 110.972 212.681C112.193 211.781 113.378 210.834 114.521 209.838C126.131 199.725 133.476 184.867 133.476 168.324C133.476 151.781 126.396 137.463 115.147 127.368H115.153Z" fill="url(#paint2_linear_0_110)"/>
<path d="M203.375 149.921C202.852 148.506 202.274 147.12 201.637 145.758C192.854 126.888 173.671 113.764 151.468 113.764C141.801 113.764 132.706 116.253 124.79 120.62C124.008 121.051 123.238 121.501 122.474 121.969C128.952 128.129 134.144 135.621 137.609 143.995C138.583 146.352 139.419 148.776 140.111 151.259C141.621 156.693 142.427 162.41 142.427 168.318C142.427 186.883 134.463 203.63 121.758 215.333C130.342 220.809 140.538 223.988 151.468 223.988C181.948 223.988 206.744 199.263 206.744 168.87C206.744 163.795 206.046 158.877 204.753 154.204C204.35 152.746 203.893 151.313 203.369 149.909L203.375 149.921Z" fill="url(#paint3_linear_0_110)"/>
<path d="M178.646 42.5099C177.425 42.4319 176.198 42.3839 174.958 42.3839C174.658 42.3839 174.357 42.3899 174.056 42.3959C172.528 42.4199 171.018 42.5039 169.526 42.6538C168.72 42.7318 167.92 42.8278 167.126 42.9417C158.861 44.5373 151.643 47.1945 145.483 50.9015C138.968 54.8184 133.644 59.9049 129.53 66.1491C126.474 70.7918 124.08 76.0643 122.372 81.9726C120.82 87.3411 120.038 92.5896 119.689 97.2442C119.689 97.3282 119.689 97.4182 119.689 97.5022C119.689 101.791 120.182 105.96 121.114 109.967C121.289 110.704 121.475 111.436 121.68 112.168C129.759 107.933 138.848 105.36 148.485 104.916C149.477 104.868 150.47 104.844 151.474 104.844C152.966 104.844 154.44 104.898 155.908 105C179.32 106.602 199.321 120.764 209.168 140.768C221.993 130.667 230.24 115.023 230.24 97.5022C230.24 68.3445 207.418 44.4113 178.652 42.5099H178.646Z" fill="url(#paint4_linear_0_110)"/>
</g>
<defs>
<linearGradient id="paint0_linear_0_110" x1="-8.01855" y1="75.3564" x2="90.9681" y2="114.225" gradientUnits="userSpaceOnUse"><stop offset="0.07" stop-color="#F1EDEE"/><stop offset="0.28" stop-color="white" stop-opacity="0.75"/><stop offset="0.61" stop-color="white" stop-opacity="0.5"/><stop offset="1" stop-color="white" stop-opacity="0.25"/></linearGradient>
<linearGradient id="paint1_linear_0_110" x1="109.18" y1="-11.9966" x2="117.165" y2="93.7027" gradientUnits="userSpaceOnUse"><stop offset="0.07" stop-color="#F1EDEE"/><stop offset="0.28" stop-color="white" stop-opacity="0.75"/><stop offset="0.61" stop-color="white" stop-opacity="0.5"/><stop offset="1" stop-color="white" stop-opacity="0.25"/></linearGradient>
<linearGradient id="paint2_linear_0_110" x1="46.6073" y1="228.337" x2="98.7883" y2="131.16" gradientUnits="userSpaceOnUse"><stop offset="0.07" stop-color="#F1EDEE"/><stop offset="0.28" stop-color="white" stop-opacity="0.75"/><stop offset="0.61" stop-color="white" stop-opacity="0.5"/><stop offset="1" stop-color="white" stop-opacity="0.25"/></linearGradient>
<linearGradient id="paint3_linear_0_110" x1="181.678" y1="214.403" x2="130.626" y2="126.785" gradientUnits="userSpaceOnUse"><stop stop-color="#F1EDEE"/><stop offset="0.16" stop-color="white" stop-opacity="0.75"/><stop offset="0.58" stop-color="white" stop-opacity="0.5"/><stop offset="1" stop-color="white" stop-opacity="0.25"/></linearGradient>
<linearGradient id="paint4_linear_0_110" x1="241.074" y1="65.9092" x2="141.056" y2="112.855" gradientUnits="userSpaceOnUse"><stop offset="0.06" stop-color="#F1EDEE"/><stop offset="0.26" stop-color="white" stop-opacity="0.75"/><stop offset="0.6" stop-color="white" stop-opacity="0.5"/><stop offset="1" stop-color="white" stop-opacity="0.25"/></linearGradient>
<clipPath id="clip0_0_110"><rect width="931" height="224" fill="white"/></clipPath>
</defs>
</svg>
