<svg width="985" height="309" viewBox="0 0 985 309" fill="none" xmlns="http://www.w3.org/2000/svg">
<path d="M67.0898 188.046C75.1579 192.662 84.4894 195.301 94.4226 195.301C116.702 195.301 135.948 182.033 144.69 162.969C144.985 162.324 145.268 161.673 145.539 161.016C136.177 159.649 127.459 156.256 119.854 151.291C117.761 149.924 115.757 148.441 113.844 146.851C99.651 135.041 90.6022 117.242 90.6022 97.3643C90.6022 93.0079 91.0414 88.748 91.8656 84.6326C62.5654 85.9763 39.1372 110.265 39.1372 139.94C39.1372 157.269 47.1271 172.76 59.6113 182.919C60.7845 183.877 61.9998 184.781 63.2513 185.642C64.4967 186.498 65.7722 187.299 67.0838 188.052L67.0898 188.046Z" fill="url(#paint0_linear_0_93)"/>
<path d="M99.5847 99.208C99.5968 99.5153 99.6028 99.8286 99.6208 100.136C99.6269 100.317 99.6449 100.497 99.6509 100.678C99.669 100.955 99.681 101.233 99.7051 101.51C99.7171 101.703 99.7351 101.889 99.7532 102.082C99.7773 102.347 99.7953 102.612 99.8254 102.871C99.8434 103.07 99.8675 103.263 99.8916 103.462C99.9217 103.715 99.9457 103.974 99.9818 104.227C100.006 104.426 100.036 104.625 100.06 104.818C100.096 105.071 100.126 105.318 100.168 105.571C100.198 105.77 100.228 105.969 100.259 106.167C100.301 106.414 100.337 106.661 100.379 106.908C100.415 107.107 100.451 107.306 100.487 107.499C100.535 107.746 100.577 107.987 100.626 108.234C100.668 108.433 100.704 108.626 100.746 108.819C100.8 109.066 100.848 109.307 100.902 109.548C100.944 109.74 100.993 109.933 101.035 110.126C101.095 110.367 101.149 110.614 101.215 110.855C101.263 111.042 101.311 111.235 101.36 111.421C101.426 111.669 101.492 111.91 101.558 112.151C101.606 112.337 101.66 112.518 101.715 112.705C101.787 112.952 101.859 113.199 101.931 113.44C101.985 113.621 102.039 113.795 102.094 113.976C102.172 114.229 102.256 114.476 102.334 114.723C102.388 114.892 102.443 115.061 102.503 115.23C102.593 115.489 102.683 115.748 102.779 116.007C102.834 116.163 102.888 116.314 102.948 116.471C103.05 116.748 103.159 117.025 103.267 117.302C103.315 117.435 103.369 117.567 103.417 117.7C103.544 118.025 103.676 118.345 103.808 118.664C103.844 118.748 103.874 118.833 103.911 118.917C104.254 119.73 104.621 120.538 105.006 121.333C105.03 121.381 105.054 121.436 105.078 121.484C105.246 121.827 105.415 122.171 105.583 122.508C105.637 122.611 105.691 122.713 105.74 122.815C105.89 123.099 106.034 123.388 106.191 123.671C106.257 123.792 106.323 123.912 106.389 124.033C106.534 124.292 106.678 124.551 106.823 124.81C106.895 124.942 106.973 125.069 107.051 125.202C107.196 125.449 107.34 125.69 107.484 125.937C107.569 126.075 107.653 126.208 107.731 126.34C107.875 126.575 108.02 126.81 108.17 127.045C108.254 127.178 108.345 127.316 108.429 127.449C108.579 127.678 108.73 127.913 108.88 128.136C108.97 128.268 109.061 128.401 109.151 128.534C109.307 128.763 109.464 128.985 109.62 129.208C109.71 129.341 109.807 129.474 109.903 129.606C110.065 129.829 110.222 130.052 110.384 130.269C110.481 130.395 110.577 130.528 110.673 130.655C110.842 130.877 111.01 131.094 111.178 131.311C111.275 131.432 111.371 131.558 111.467 131.679C111.642 131.896 111.816 132.119 111.997 132.336C112.093 132.456 112.189 132.571 112.286 132.691C112.466 132.914 112.653 133.131 112.839 133.348C112.935 133.456 113.026 133.571 113.122 133.679C113.314 133.902 113.513 134.125 113.711 134.342C113.802 134.444 113.892 134.547 113.982 134.643C114.193 134.872 114.409 135.101 114.62 135.33C114.704 135.415 114.782 135.505 114.867 135.589C115.107 135.836 115.348 136.083 115.589 136.33C115.649 136.391 115.709 136.457 115.769 136.517C116.058 136.806 116.353 137.09 116.647 137.373C116.666 137.391 116.678 137.403 116.696 137.421C117.652 138.331 118.633 139.211 119.65 140.048C119.698 140.084 119.746 140.126 119.794 140.163C120.083 140.398 120.372 140.633 120.66 140.862C120.739 140.922 120.817 140.982 120.901 141.048C121.16 141.253 121.425 141.458 121.689 141.657C121.786 141.729 121.888 141.801 121.99 141.88C122.237 142.067 122.489 142.247 122.736 142.428C122.85 142.506 122.959 142.585 123.073 142.663C123.314 142.832 123.56 143.007 123.801 143.169C123.921 143.254 124.042 143.332 124.162 143.41C124.403 143.573 124.643 143.73 124.884 143.886C125.01 143.971 125.137 144.049 125.263 144.127C125.504 144.278 125.744 144.429 125.985 144.579C126.117 144.658 126.25 144.742 126.382 144.82C126.623 144.965 126.863 145.109 127.104 145.248C127.236 145.326 127.375 145.405 127.507 145.483C127.754 145.622 127.995 145.76 128.241 145.893C128.38 145.971 128.512 146.043 128.65 146.116C128.897 146.248 129.15 146.381 129.396 146.513C129.535 146.586 129.673 146.658 129.812 146.73C130.064 146.857 130.317 146.983 130.576 147.11C130.714 147.176 130.852 147.248 130.991 147.315C131.249 147.441 131.514 147.562 131.779 147.682C131.911 147.743 132.044 147.809 132.182 147.869C132.459 147.996 132.736 148.116 133.012 148.231C133.139 148.285 133.265 148.339 133.385 148.393C133.68 148.52 133.981 148.64 134.282 148.761C134.39 148.803 134.498 148.851 134.607 148.893C134.944 149.026 135.287 149.152 135.623 149.285C135.696 149.309 135.768 149.339 135.84 149.363C136.676 149.671 137.525 149.96 138.379 150.225C138.397 150.231 138.415 150.237 138.439 150.243C138.842 150.37 139.245 150.49 139.648 150.605C139.757 150.635 139.871 150.665 139.979 150.695C140.292 150.785 140.611 150.87 140.924 150.954C141.068 150.99 141.219 151.026 141.363 151.063C141.646 151.135 141.929 151.207 142.218 151.273C142.38 151.31 142.548 151.346 142.717 151.388C142.988 151.448 143.252 151.508 143.523 151.563C143.704 151.599 143.878 151.635 144.059 151.671C144.317 151.725 144.576 151.774 144.841 151.822C145.027 151.858 145.214 151.888 145.4 151.918C145.653 151.96 145.912 152.002 146.164 152.045C146.357 152.075 146.549 152.105 146.742 152.135C146.995 152.171 147.247 152.207 147.5 152.243C147.699 152.268 147.897 152.292 148.096 152.322C148.156 152.328 148.21 152.334 148.27 152.34C148.463 152.364 148.655 152.388 148.848 152.406C149.052 152.43 149.257 152.448 149.455 152.466C149.57 152.478 149.69 152.485 149.804 152.497C149.576 149.152 149.455 144.477 149.864 139.06C149.937 133.77 150.641 128.63 151.922 123.719C152.554 121.279 153.33 118.899 154.238 116.579C156.296 111.313 159.022 106.384 162.319 101.895C166.374 96.1471 171.746 90.6881 178.852 86.1691C186.511 81.1198 195.307 77.6612 204.765 76.2754L205.836 76.0766C205.282 74.7449 204.681 73.4435 204.025 72.1661C204.025 72.1661 204.025 72.1661 204.025 72.1601C203.622 71.3768 203.207 70.6115 202.767 69.8523C202.761 69.8403 202.749 69.8222 202.743 69.8102C202.563 69.4968 202.376 69.1895 202.196 68.8822C202.112 68.7376 202.021 68.593 201.937 68.4544C201.757 68.1592 201.576 67.864 201.39 67.5747C201.329 67.4783 201.263 67.3819 201.203 67.2855C200.824 66.7011 200.433 66.1226 200.03 65.5502C199.964 65.4538 199.891 65.3514 199.825 65.255C199.603 64.9416 199.374 64.6223 199.139 64.315C199.097 64.2608 199.055 64.2065 199.013 64.1523C198.526 63.5076 198.026 62.8689 197.509 62.2423C197.431 62.1459 197.353 62.0555 197.274 61.9591C196.775 61.3626 196.27 60.7721 195.746 60.1936C195.746 60.1936 195.746 60.1936 195.74 60.1876C188.28 51.9569 178.389 45.9737 167.21 43.3948C167.198 43.3948 167.186 43.3949 167.174 43.3888C166.32 43.19 165.459 43.0152 164.593 42.8586C164.581 42.8586 164.569 42.8586 164.557 42.8526C163.347 42.6357 162.132 42.4609 160.905 42.3284C160.526 42.2862 160.153 42.25 159.774 42.2139C159.551 42.1958 159.328 42.1717 159.106 42.1536C158.504 42.1054 157.896 42.0693 157.289 42.0452C157.114 42.0391 156.946 42.0331 156.771 42.0271C156.116 42.003 155.46 41.9909 154.804 41.9909C131.767 41.9909 111.985 56.1747 103.688 76.2754C103.11 77.6793 102.581 79.1194 102.118 80.5775C101.66 82.0116 101.257 83.4697 100.92 84.952C100.006 88.9408 99.5186 93.0923 99.5186 97.3582C99.5186 97.8222 99.5246 98.2861 99.5366 98.7501C99.5366 98.9007 99.5486 99.0514 99.5547 99.202L99.5847 99.208Z" fill="url(#paint1_linear_0_93)"/>
<path d="M154.311 169.94C153.613 169.307 152.897 168.699 152.163 168.102C148.054 176.52 142.163 183.907 134.992 189.776C133.018 191.39 130.943 192.891 128.783 194.265C118.838 200.591 107.051 204.267 94.4226 204.267C83.4245 204.267 73.0581 201.483 63.9973 196.578C62.7459 201.2 62.072 206.062 62.072 211.081C62.072 241.612 86.872 266.449 117.357 266.449C127.983 266.449 137.916 263.43 146.351 258.2C147.644 257.399 148.908 256.543 150.129 255.639C151.351 254.735 152.536 253.783 153.679 252.783C165.291 242.624 172.637 227.699 172.637 211.081C172.637 194.463 165.555 180.081 154.305 169.94H154.311Z" fill="url(#paint2_linear_0_93)"/>
<path d="M242.542 192.596C242.019 191.174 241.441 189.782 240.803 188.414C232.019 169.458 212.833 156.274 190.626 156.274C180.958 156.274 171.861 158.775 163.943 163.162C163.161 163.595 162.391 164.047 161.627 164.517C168.106 170.705 173.299 178.231 176.764 186.642C177.739 189.01 178.575 191.445 179.267 193.939C180.777 199.398 181.583 205.14 181.583 211.075C181.583 229.724 173.617 246.547 160.911 258.302C169.496 263.804 179.694 266.997 190.626 266.997C221.112 266.997 245.911 242.16 245.911 211.63C245.911 206.532 245.214 201.591 243.92 196.898C243.517 195.433 243.06 193.993 242.536 192.583L242.542 192.596Z" fill="url(#paint3_linear_0_93)"/>
<path d="M217.815 84.6989C216.593 84.6206 215.366 84.5724 214.127 84.5724C213.826 84.5724 213.525 84.5784 213.224 84.5844C211.696 84.6085 210.186 84.6929 208.694 84.8435C207.887 84.9218 207.087 85.0182 206.293 85.1327C198.026 86.7355 190.807 89.4047 184.646 93.1284C178.13 97.063 172.805 102.173 168.69 108.445C165.634 113.109 163.239 118.405 161.531 124.34C159.978 129.733 159.196 135.005 158.847 139.681C158.847 139.765 158.847 139.855 158.847 139.94C158.847 144.248 159.341 148.435 160.273 152.46C160.448 153.202 160.634 153.937 160.839 154.672C168.919 150.418 178.01 147.833 187.648 147.387C188.641 147.339 189.633 147.315 190.638 147.315C192.13 147.315 193.604 147.369 195.072 147.471C218.489 149.08 238.493 163.306 248.342 183.401C261.169 173.254 269.418 157.54 269.418 139.94C269.418 110.65 246.592 86.6089 217.821 84.6989H217.815Z" fill="url(#paint4_linear_0_93)"/>
<path d="M329.42 241.343C328 241.343 328 241.343 328 239.923V66.4202C328 65 328 65 329.42 65H397.091C437.433 65 460.621 89.8537 460.621 124.531C460.621 159.444 437.078 183.706 396.262 183.706H365.74C364.32 183.706 364.32 183.706 364.32 185.126V239.923C364.32 241.343 364.32 241.343 362.9 241.343H329.42ZM364.32 153.172C364.32 154.592 364.32 154.592 365.74 154.592H390.465C412.589 154.592 423.118 142.283 423.118 124.531C423.118 106.778 412.589 94.8245 390.347 94.8245H365.74C364.32 94.8245 364.32 94.8245 364.32 96.2447V153.172Z" fill="#351B30"/>
<path d="M513.574 242.172C486.364 242.172 474.06 230.573 474.06 207.021V66.4202C474.06 65 474.06 65 475.48 65H508.369C509.789 65 509.789 65 509.789 66.4202V202.169C509.789 210.69 512.391 214.241 519.49 214.241C523.276 214.241 525.168 213.886 526.825 213.412L532.385 239.331C528.599 240.633 521.738 242.172 513.574 242.172Z" fill="#351B30"/>
<path d="M584.156 243C556.59 243 538.371 224.182 538.371 193.174V110.447C538.371 109.027 538.371 109.027 539.791 109.027H572.68C574.1 109.027 574.1 109.027 574.1 110.447V187.02C574.1 203.471 583.091 213.294 598.116 213.294C613.259 213.294 623.906 203.116 623.906 185.6V110.447C623.906 109.027 623.906 109.027 625.326 109.027H658.333C659.753 109.027 659.753 109.027 659.753 110.447V239.923C659.753 241.343 659.753 241.343 658.333 241.343H627.337C625.918 241.343 625.918 241.343 625.918 239.923L625.444 213.886C617.991 232.585 604.386 243 584.156 243Z" fill="#351B30"/>
<path d="M680.528 241.343C679.108 241.343 679.108 241.343 679.108 239.923V110.447C679.108 109.027 679.108 109.027 680.528 109.027H710.696C712.115 109.027 712.115 109.027 712.234 110.447L713.535 134.709C720.752 115.418 735.658 107.015 751.511 107.015C768.547 107.015 779.668 116.601 785.82 136.721C793.273 116.364 810.191 107.015 828.528 107.015C852.899 107.015 871 123.347 871 152.106V239.923C871 241.343 871 241.343 869.58 241.343H836.81C835.39 241.343 835.39 241.343 835.39 239.923V158.852C835.39 143.94 826.162 136.721 814.095 136.721C800.608 136.721 792.208 146.07 792.208 159.918V239.923C792.208 241.343 792.208 241.343 790.789 241.343H759.201C757.781 241.343 757.781 241.343 757.781 239.923V157.906C757.781 145.005 749.145 136.721 737.078 136.721C724.419 136.721 714.718 145.479 714.718 161.338V239.923C714.718 241.343 714.718 241.343 713.298 241.343H680.528Z" fill="#351B30"/>
<defs>
<linearGradient id="paint0_linear_0_93" x1="31.1172" y1="117.688" x2="130.23" y2="156.446" gradientUnits="userSpaceOnUse"><stop offset="0.07" stop-color="#F1EDEE"/><stop offset="0.28" stop-color="#F8BC9F"/><stop offset="0.61" stop-color="#AA5476"/><stop offset="1" stop-color="#4A1B3B"/></linearGradient>
<linearGradient id="paint1_linear_0_93" x1="148.33" y1="29.9462" x2="156.392" y2="136.118" gradientUnits="userSpaceOnUse"><stop offset="0.07" stop-color="#F1EDEE"/><stop offset="0.28" stop-color="#F8BC9F"/><stop offset="0.61" stop-color="#AA5476"/><stop offset="1" stop-color="#4A1B3B"/></linearGradient>
<linearGradient id="paint2_linear_0_93" x1="85.7529" y1="271.365" x2="138.295" y2="173.933" gradientUnits="userSpaceOnUse"><stop offset="0.07" stop-color="#F1EDEE"/><stop offset="0.28" stop-color="#F8BC9F"/><stop offset="0.61" stop-color="#AA5476"/><stop offset="1" stop-color="#4A1B3B"/></linearGradient>
<linearGradient id="paint3_linear_0_93" x1="220.847" y1="257.368" x2="169.455" y2="169.548" gradientUnits="userSpaceOnUse"><stop stop-color="#F1EDEE"/><stop offset="0.15" stop-color="#F8BC9F"/><stop offset="0.58" stop-color="#AA5476"/><stop offset="1" stop-color="#4A1B3B"/></linearGradient>
<linearGradient id="paint4_linear_0_93" x1="280.254" y1="108.204" x2="180.056" y2="155.028" gradientUnits="userSpaceOnUse"><stop offset="0.06" stop-color="#F1EDEE"/><stop offset="0.26" stop-color="#F8BC9F"/><stop offset="0.6" stop-color="#AA5476"/><stop offset="1" stop-color="#4A1B3B"/></linearGradient>
</defs>
</svg>
