<svg xmlns="http://www.w3.org/2000/svg" width="543" height="178" viewBox="0 0 543 178" fill="none">
  <path d="M 1.42 176.343 C 0 176.343 0 176.343 0 174.923 L 0 1.42 C 0 0 0 0 1.42 0 L 69.091 0 C 109.433 0 132.621 24.854 132.621 59.531 C 132.621 94.444 109.078 118.706 68.262 118.706 L 37.74 118.706 C 36.32 118.706 36.32 118.706 36.32 120.126 L 36.32 174.923 C 36.32 176.343 36.32 176.343 34.9 176.343 L 1.42 176.343 Z M 36.32 88.172 C 36.32 89.592 36.32 89.592 37.74 89.592 L 62.465 89.592 C 84.589 89.592 95.118 77.283 95.118 59.531 C 95.118 41.778 84.589 29.824 62.347 29.824 L 37.74 29.824 C 36.32 29.824 36.32 29.824 36.32 31.245 L 36.32 88.172 Z" fill="currentColor" fill-rule="nonzero"></path>
  <path d="M 185.574 177.172 C 158.364 177.172 146.06 165.573 146.06 142.021 L 146.06 1.42 C 146.06 0 146.06 0 147.48 0 L 180.369 0 C 181.789 0 181.789 0 181.789 1.42 L 181.789 137.169 C 181.789 145.69 184.391 149.241 191.49 149.241 C 195.276 149.241 197.168 148.886 198.825 148.412 L 204.385 174.331 C 200.599 175.633 193.738 177.172 185.574 177.172 Z" fill="currentColor" fill-rule="nonzero"></path>
  <path d="M 256.156 178 C 228.59 178 210.371 159.182 210.371 128.174 L 210.371 45.447 C 210.371 44.027 210.371 44.027 211.791 44.027 L 244.68 44.027 C 246.1 44.027 246.1 44.027 246.1 45.447 L 246.1 122.02 C 246.1 138.471 255.091 148.294 270.116 148.294 C 285.259 148.294 295.906 138.116 295.906 120.6 L 295.906 45.447 C 295.906 44.027 295.906 44.027 297.326 44.027 L 330.333 44.027 C 331.753 44.027 331.753 44.027 331.753 45.447 L 331.753 174.923 C 331.753 176.343 331.753 176.343 330.333 176.343 L 299.337 176.343 C 297.918 176.343 297.918 176.343 297.918 174.923 L 297.444 148.886 C 289.991 167.585 276.386 178 256.156 178 Z" fill="currentColor" fill-rule="nonzero"></path>
  <path d="M 352.528 176.343 C 351.108 176.343 351.108 176.343 351.108 174.923 L 351.108 45.447 C 351.108 44.027 351.108 44.027 352.528 44.027 L 382.696 44.027 C 384.115 44.027 384.115 44.027 384.234 45.447 L 385.535 69.709 C 392.752 50.418 407.658 42.015 423.511 42.015 C 440.547 42.015 451.668 51.601 457.82 71.721 C 465.273 51.364 482.191 42.015 500.528 42.015 C 524.899 42.015 543 58.347 543 87.106 L 543 174.923 C 543 176.343 543 176.343 541.58 176.343 L 508.81 176.343 C 507.39 176.343 507.39 176.343 507.39 174.923 L 507.39 93.852 C 507.39 78.94 498.162 71.721 486.095 71.721 C 472.608 71.721 464.208 81.07 464.208 94.918 L 464.208 174.923 C 464.208 176.343 464.208 176.343 462.789 176.343 L 431.201 176.343 C 429.781 176.343 429.781 176.343 429.781 174.923 L 429.781 92.906 C 429.781 80.005 421.145 71.721 409.078 71.721 C 396.419 71.721 386.718 80.479 386.718 96.338 L 386.718 174.923 C 386.718 176.343 386.718 176.343 385.298 176.343 L 352.528 176.343 Z" fill="currentColor" fill-rule="nonzero"></path>
</svg>